<svg xmlns="http://www.w3.org/2000/svg" width="100%" height="100%" viewBox="0 0 203.808 133.629"><g fill="#fff"><path d="M108.92 27.247C94.127 12.455 73.722 3.275 51.172 3.175h-.744c-10.25.074-19.777 3.183-27.73 8.473C9.114 20.685.127 36.088.002 53.6v.744c.095 21.394 8.365 40.857 21.845 55.43.002 0 .002 0 .002.002 2.78 3.003 7.47 3.185 10.473.407 2.197-2.03 2.885-5.082 2.013-7.75l-.1-.282c-.02-.054-.04-.11-.063-.165 0 0 0 .002.01.003-1.802-5.208-2.782-10.8-2.782-16.623 0-1.05.032-2.093.095-3.127 0-.037 0-.073.01-.11 0-.08.01-.16.017-.24.747-9.81 8.688-17.396 18.307-17.9.75-.042 1.51-.038 2.28.01 3.53.227 6.778 1.383 9.522 3.213v.005c1.568 1.067 3.362 1.74 5.222 1.98.105.015.21.027.316.038 11.695 1.345 23.767-1.367 33.938-8.137 2.693-1.79 5.253-3.868 7.637-6.23l.18-.177.175-.18c2.463-2.525 4.1-5.555 4.91-8.752 1.628-6.412-.067-13.493-5.085-18.51zM94.278 104.678c14.793 14.792 35.198 23.972 57.748 24.072h.744c10.25-.074 19.777-3.183 27.73-8.473 13.585-9.037 22.57-24.44 22.697-41.952v-.372-.372c-.094-21.393-8.364-40.856-21.844-55.428l-.002-.003c-2.78-3.004-7.468-3.186-10.472-.408-2.197 2.03-2.885 5.082-2.013 7.75l.1.282c.02.055.04.11.063.166 0 0 0-.002-.01-.003 1.802 5.208 2.782 10.8 2.782 16.623 0 1.05-.03 2.093-.094 3.127 0 .037 0 .073-.01.11-.01.08-.01.16-.017.24-.748 9.81-8.69 17.396-18.308 17.9-.75.042-1.51.038-2.28-.01-3.53-.227-6.778-1.383-9.522-3.213v-.004c-1.57-1.067-3.363-1.74-5.223-1.98-.105-.015-.21-.027-.316-.038-11.694-1.345-23.766 1.367-33.937 8.137-2.693 1.79-5.253 3.867-7.637 6.23l-.18.176-.175.18c-2.462 2.524-4.1 5.554-4.91 8.75-1.628 6.413.067 13.494 5.085 18.512z"></path></g></svg>